<?xml version="1.0" ?><svg xmlns="http://www.w3.org/2000/svg" fill="none" viewBox="153.6 153.6 716.8 716.8">
<g clip-path="url(#clip0_4_4)">
<path d="M395.609 199.438C400.396 204.816 401.678 211.198 401.383 218.23C400.177 226.951 396.055 234.129 389.082 239.469C382.198 244.049 375.223 245.873 367 245C361.955 243.927 357.439 242.322 352.937 239.813C347.941 237.209 343.283 237.024 337.898 238.625C330.315 241.904 325.212 248.485 321.84 255.867C311.3 282.634 318.559 312.701 329.348 338.262C346.266 377.091 373.703 412.655 406 440C407.45 441.249 407.45 441.249 408.93 442.523C419.157 451.302 429.609 459.759 441 467C446.422 464.063 451.255 460.711 456.125 456.938C457.228 456.09 457.228 456.09 458.354 455.226C463.7 451.089 468.903 446.806 473.977 442.34C476.337 440.284 477.99 439.003 481 438C481 437.34 481 436.68 481 436C482.504 434.52 482.504 434.52 484.562 432.812C488.11 429.813 491.365 426.66 494.555 423.285C496 422 496 422 498 422C498.238 421.43 498.477 420.86 498.723 420.273C500.27 417.52 502.133 415.786 504.437 413.625C510.105 408.072 514.88 402.029 519.674 395.719C520.882 394.153 522.134 392.621 523.391 391.094C552.331 355.446 569.813 310.019 566 264C565.01 264 564.02 264 563 264C563.292 263.155 563.292 263.155 563.59 262.293C564.393 257.805 562.083 253.892 560 250C555.911 244.229 551.922 239.854 545 238C537.949 236.906 533.234 239.442 526.953 242.59C519.24 246.273 511.416 245.701 503.418 243.035C495.28 239.551 489.823 233.242 485.687 225.563C483.609 217.814 483.557 211.398 487 204C491.193 197.251 496.434 194.072 504 192C508.064 191.567 512.045 191.615 516.125 191.75C517.703 191.777 517.703 191.777 519.312 191.805C521.876 191.851 524.437 191.917 527 192C527 192.66 527 193.32 527 194C527.804 194.062 528.609 194.124 529.437 194.188C537.45 196.015 543.758 201.2 550.246 206.027C552.771 207.836 555.317 209.439 558 211C563.581 214.266 569.053 217.824 574 222C574 222.66 574 223.32 574 224C574.855 224.329 574.855 224.329 575.727 224.664C585.518 230.418 591.953 245.639 594.783 256.033C596.453 262.629 597.744 269.189 598 276C598.04 276.86 598.08 277.72 598.121 278.605C599.084 319.658 582.739 359.565 560 393C559.505 393.737 559.01 394.474 558.5 395.233C551.635 405.412 544.194 414.864 536 424C535.172 424.927 534.345 425.854 533.492 426.809C532.002 428.468 530.508 430.123 529.008 431.773C527.16 433.823 525.358 435.904 523.562 438C519.297 442.887 514.842 447.68 510 452C509.34 452 508.68 452 508 452C508 452.66 508 453.32 508 454C506.742 455.305 506.742 455.305 504.875 456.875C504.143 457.496 503.411 458.118 502.656 458.758C501.341 459.868 501.341 459.868 500 461C498.947 461.913 497.895 462.827 496.844 463.742C488.763 470.762 480.484 477.475 472 484C471.25 484.597 470.5 485.194 469.727 485.809C468 487 468 487 466 487C466 487.99 466 488.98 466 490C466.529 490.229 467.057 490.459 467.602 490.695C470.788 492.429 473.546 494.624 476.375 496.875C476.987 497.36 477.599 497.844 478.23 498.344C497.311 513.558 516.518 530.062 532 549C532.418 549.499 532.836 549.997 533.266 550.511C564.413 587.741 584.169 631.784 580.723 680.957C578.899 696.156 573.352 709.72 566 723C565.456 723.987 564.912 724.975 564.352 725.992C559.626 733.945 553.469 740.458 547 747C546.147 747.878 545.293 748.756 544.414 749.66C532.477 761.249 517.421 769.073 502 775C500.849 775.449 499.698 775.897 498.512 776.359C486.993 780.511 474.995 782.683 463 785C476.327 798.535 492.134 806.208 511.334 806.52C536.559 806.365 553.997 798.693 574.764 785.03C600.756 768 600.756 768 614 768C613.917 766.928 613.835 765.855 613.75 764.75C613.761 758.767 615.836 753.51 618 748C618.327 747.163 618.655 746.327 618.992 745.465C626.195 729.298 640.822 717.467 657 711C664.765 708.356 672.006 707.45 680.188 707.5C681.279 707.505 682.37 707.51 683.495 707.515C692.769 707.714 700.526 709.304 709 713C709.987 713.423 710.975 713.846 711.992 714.281C728.037 722.099 739.947 737.122 745.75 753.75C750.91 769.469 748.763 787.178 742 801.938C732.603 820.391 716.993 831.28 697.598 837.809C680.054 842.279 660.662 838.966 645.148 830.137C640.53 827.002 636.541 823.348 632.559 819.453C630.453 817.434 628.377 815.678 626 814C626 814.66 626 815.32 626 816C625.34 816 624.68 816 624 816C624.235 815.3 624.469 814.6 624.711 813.879C625.107 809.932 623.739 808.243 621.625 804.938C617.601 798.581 617.601 798.581 617 795C606.612 796.63 597.57 804.128 588.902 809.766C574.52 819.097 560.606 827.202 544 832C542.886 832.322 541.772 832.645 540.625 832.977C524.824 836.819 506.793 836.728 491.051 832.656C487.63 831.921 484.488 831.895 481 832C481 831.34 481 830.68 481 830C479.511 829.399 479.511 829.399 477.992 828.785C457.162 820.153 441.565 807.874 429 789C428.626 787.677 428.284 786.345 428 785C426.747 784.867 425.494 784.734 424.203 784.598C422.552 784.419 420.901 784.241 419.25 784.062C418.012 783.932 418.012 783.932 416.75 783.799C415.951 783.712 415.152 783.625 414.328 783.535C413.595 783.457 412.862 783.378 412.106 783.297C410.019 783.003 408.034 782.549 406 782C406 782.66 406 783.32 406 784C404.02 783.67 402.04 783.34 400 783C400.33 782.01 400.66 781.02 401 780C399.482 779.816 399.482 779.816 397.934 779.629C385.4 777.625 374.06 771.972 363 766C361.88 765.398 360.76 764.796 359.605 764.176C354.064 761.074 349.266 757.831 344.719 753.383C343.082 751.853 343.082 751.853 340.906 751.555C339 751 339 751 337.969 749.148C337.649 748.439 337.329 747.73 337 747C335.873 745.835 334.701 744.713 333.5 743.625C323.369 733.677 316.98 721.706 311 709C308.955 704.724 308.955 704.724 306.25 700.875C305.837 700.256 305.425 699.637 305 699C305.322 697.664 305.658 696.331 306 695C305.533 693.332 305.06 691.666 304.542 690.013C295.551 656.646 306.545 617.268 322.75 588C330.456 574.935 339.375 562.709 349 551C349.465 550.43 349.931 549.86 350.41 549.273C368.078 527.803 388.608 508.9 410.848 492.274C413.892 490.052 413.891 490.052 416 487C415.461 486.76 414.922 486.52 414.367 486.273C404.208 480.808 395.246 471.952 386.591 464.387C385.107 463.093 383.612 461.812 382.117 460.531C380.884 459.464 380.884 459.464 379.625 458.375C378.916 457.764 378.207 457.153 377.477 456.523C376 455 376 455 376 453C375.406 452.731 374.812 452.463 374.2 452.186C371.99 450.995 370.554 449.798 368.793 448.023C368.206 447.434 367.619 446.845 367.014 446.238C366.411 445.623 365.808 445.009 365.187 444.375C364.301 443.487 364.301 443.487 363.396 442.582C359.072 438.215 354.993 433.671 351 429C350.174 428.034 350.174 428.034 349.331 427.049C338.319 414.07 327.95 400.619 319.5 385.809C319.005 385.212 318.51 384.615 318 384C316.68 384 315.36 384 314 384C314 383.34 314 382.68 314 382C314.66 381.67 315.32 381.34 316 381C315.359 379.886 314.719 378.773 314.059 377.625C306.113 363.673 299.822 349.82 294.625 334.625C294.279 333.626 293.932 332.628 293.576 331.599C291.708 325.973 290.556 320.809 290.287 314.876C290.192 314.257 290.097 313.638 290 313C289.34 312.67 288.68 312.34 288 312C287.589 310.181 287.589 310.181 287.367 307.801C287.283 306.928 287.199 306.056 287.112 305.157C286.995 303.749 286.995 303.749 286.875 302.312C286.792 301.355 286.708 300.398 286.622 299.411C284.495 273.6 287.179 248.638 304.281 227.973C305.132 226.996 305.132 226.996 306 226C306.485 225.421 306.969 224.842 307.469 224.246C315.409 215.516 326.63 209.409 337.172 204.434C340.117 202.941 342.765 201.223 345.5 199.375C360.374 189.702 381.426 186.896 395.609 199.438ZM440 507C431.927 512.891 424.216 519.071 416.649 525.594C415.062 526.947 413.455 528.274 411.84 529.594C404.059 536.01 396.834 542.953 389.687 550.062C388.768 550.972 387.849 551.882 386.903 552.82C380.843 558.907 375.335 565.273 370 572C368.912 573.329 367.823 574.657 366.734 575.984C344.318 603.973 329.511 637.752 332.496 674.137C335.464 696.893 345.665 718.687 364 733C364.714 733.562 365.428 734.124 366.164 734.703C394.509 755.749 431.401 761.304 465.693 756.479C492.443 752.254 519.848 739.288 536.361 717.177C550.39 696.857 554.356 672.196 550.384 648.077C547.65 633.3 541.805 620.265 535 607C534.34 607 533.68 607 533 607C532.857 605.683 532.857 605.683 532.711 604.34C531.93 600.672 530.756 598.629 528.625 595.562C527.903 594.524 527.181 593.485 526.437 592.414C525.626 591.276 524.813 590.138 524 589C523.573 588.394 523.147 587.788 522.707 587.163C517.365 579.584 511.853 572.413 505.484 565.66C503.519 563.555 501.629 561.423 499.75 559.242C495.763 554.667 491.542 550.351 487.25 546.062C486.456 545.269 485.663 544.476 484.845 543.658C479.933 538.794 474.961 534.264 469.512 530.008C466.681 527.745 464.036 525.334 461.375 522.875C454.699 516.75 448.015 511.263 440 507ZM307 699C308 701 308 701 308 701L307 699ZM648 742C647.509 742.523 647.018 743.047 646.512 743.586C637.479 753.493 635.392 764.425 635.691 777.48C636.298 789.55 642.027 799.521 650.688 807.75C660.651 815.886 671.753 819.462 684.5 818.875C697.861 817.498 708.571 811.652 717.211 801.43C725.721 789.872 727.484 776.97 726 763C723.073 751.341 715.549 742.074 706 735C704.35 734.293 702.686 733.617 701 733C700.505 732.505 700.505 732.505 700 732C682.201 724.635 661.204 726.963 648 742ZM402 781C406 782 406 782 406 782L402 781Z" fill="#316481"/>
<path d="M381.053 628.612C382.549 628.608 384.045 628.602 385.541 628.596C389.576 628.582 393.611 628.587 397.646 628.597C401.882 628.605 406.118 628.598 410.355 628.593C417.464 628.587 424.574 628.595 431.684 628.609C439.89 628.625 448.095 628.62 456.301 628.603C463.365 628.59 470.428 628.588 477.492 628.596C481.703 628.6 485.914 628.601 490.125 628.591C494.083 628.582 498.041 628.588 501.999 628.606C503.447 628.61 504.895 628.609 506.342 628.602C522.741 628.534 522.741 628.534 529.687 634.187C539.011 645.527 540.065 657.668 539 672C536.421 692.31 527.168 710.214 511.062 723C485.995 742.041 453.905 746.662 423.25 743.375C402.929 740.079 384.611 732.506 369 719C367.515 718.01 367.515 718.01 366 717C366 716.34 366 715.68 366 715C365.34 715 364.68 715 364 715C348.271 697.282 343.762 675.939 345 653C345.856 645.134 348.206 639.813 353.379 633.84C361.559 628.098 371.458 628.568 381.053 628.612Z" fill="#F3C574"/>
<path d="M375.375 318.812C376.294 318.8 377.213 318.788 378.16 318.775C396.288 318.739 413.783 321.662 431.438 325.5C435.206 326.308 438.975 327.11 442.746 327.906C443.641 328.095 444.535 328.284 445.457 328.479C474.623 334.55 504.989 335.163 534.094 328.488C537 328 537 328 540 329C527.827 360.275 509.251 388.67 485 412C482.503 414.477 480.03 416.968 477.598 419.508C471.096 426.219 464.202 432.042 456.748 437.667C455.005 438.996 453.292 440.356 451.582 441.727C450.513 442.568 449.444 443.409 448.375 444.25C447.434 444.998 446.493 445.745 445.523 446.516C443 448 443 448 441.074 448.016C437.967 446.494 435.218 444.539 432.438 442.5C431.818 442.05 431.198 441.6 430.559 441.136C411.525 427.2 393.481 410.672 379 392C378.214 391.031 377.427 390.061 376.617 389.062C370.994 382.011 366.18 374.674 361.579 366.916C361.14 366.177 360.702 365.437 360.25 364.676C359.863 364.015 359.477 363.354 359.078 362.673C357.979 360.838 357.979 360.838 356 359C355.308 357.747 354.662 356.468 354.047 355.176C353.493 354.014 353.493 354.014 352.927 352.828C352.539 351.998 352.15 351.168 351.75 350.312C351.352 349.466 350.955 348.619 350.545 347.746C340.57 326.289 340.57 326.289 342 322C343.603 321.681 345.207 321.37 346.813 321.062C348.152 320.801 348.152 320.801 349.52 320.535C358.117 319.213 366.686 318.818 375.375 318.812Z" fill="#45A2D6"/>
<path d="M0 0C337.92 0 675.84 0 1024 0C1024 0.33 1024 0.66 1024 1C686.41 1 348.82 1 1 1C1 338.26 1 675.52 1 1023C338.59 1023 676.18 1023 1024 1023C1024 1023.33 1024 1023.66 1024 1024C686.08 1024 348.16 1024 0 1024C0 686.08 0 348.16 0 0Z" fill="#989283"/>
<path d="M680 734C682 735 682 735 682.893 737.264C683.343 738.766 683.343 738.766 683.803 740.298C684.147 741.43 684.49 742.561 684.844 743.727C685.209 744.959 685.573 746.191 685.949 747.461C686.326 748.718 686.703 749.974 687.091 751.269C687.889 753.932 688.681 756.597 689.469 759.264C690.48 762.683 691.506 766.097 692.536 769.51C693.516 772.762 694.482 776.018 695.449 779.273C696.005 781.116 696.005 781.116 696.573 782.995C696.907 784.133 697.241 785.271 697.585 786.443C697.883 787.446 698.181 788.449 698.488 789.482C699 792 699 792 698 795C693.475 793.502 688.954 791.99 684.438 790.465C682.901 789.948 681.362 789.435 679.823 788.926C677.61 788.194 675.403 787.448 673.195 786.699C672.506 786.474 671.816 786.249 671.105 786.017C667.496 784.777 666.184 784.276 664 781C664.66 781 665.32 781 666 781C666.273 779.875 666.273 779.875 666.551 778.727C667.8 773.642 669.091 768.612 670.688 763.625C671.818 759.976 672.304 756.853 672 753C672.66 752.67 673.32 752.34 674 752C674 751.01 674 750.02 674 749C674.66 749 675.32 749 676 749C676.182 748.004 676.182 748.004 676.367 746.988C677.225 742.466 678.04 738.201 680 734Z" fill="#336684"/>
<path d="M502 521C505.913 522.327 508.286 523.919 511.18 526.852C511.944 527.621 512.709 528.391 513.496 529.184C514.281 529.989 515.066 530.795 515.875 531.625C516.652 532.407 517.43 533.19 518.23 533.996C520.512 536.308 522.763 538.645 525 541C526.037 542.086 526.037 542.086 527.095 543.194C527.726 543.88 528.357 544.567 529.008 545.273C529.564 545.873 530.119 546.473 530.692 547.091C532.252 549.367 532.626 551.289 533 554C531.858 552.858 530.717 551.716 529.578 550.57C528.432 549.43 527.274 548.301 526.109 547.18C525.158 546.255 525.158 546.255 524.188 545.312C523.583 544.731 522.978 544.15 522.355 543.551C521 542 521 542 521 540C520.103 539.907 520.103 539.907 519.188 539.812C517 539 517 539 515.68 536.777C513.77 533.62 511.565 531.335 508.938 528.75C508.06 527.879 507.182 527.007 506.277 526.109C504.189 523.978 504.189 523.978 502 523C502 522.34 502 521.68 502 521Z" fill="#406073"/>
<path d="M507 411C507.99 411.33 508.98 411.66 510 412C510 415 510 415 508.461 416.719C507.773 417.307 507.084 417.894 506.375 418.5C505.366 419.382 505.366 419.382 504.336 420.281C502 422 502 422 499.094 423.363C495.407 425.314 492.971 427.69 490.125 430.688C489.627 431.199 489.13 431.71 488.617 432.236C487.404 433.484 486.201 434.741 485 436C484.34 435.67 483.68 435.34 483 435C485.119 432.827 487.245 430.662 489.375 428.5C489.978 427.88 490.582 427.26 491.203 426.621C491.783 426.035 492.363 425.448 492.961 424.844C493.495 424.299 494.029 423.754 494.58 423.193C496 422 496 422 498 422C498.255 421.417 498.51 420.835 498.773 420.234C500.117 417.786 501.618 416.183 503.625 414.25C504.257 413.636 504.888 413.023 505.539 412.391C506.021 411.932 506.503 411.473 507 411Z" fill="#49728C"/>
<path d="M536 652C539.244 655.886 539.395 658.891 539.25 663.812C539.245 664.499 539.24 665.185 539.234 665.893C539.124 673.205 538.109 679.377 535 686C534.67 686 534.34 686 534 686C534.098 685.021 534.098 685.021 534.199 684.022C534.88 676.956 535.285 669.905 535.562 662.812C535.606 661.765 535.649 660.718 535.693 659.639C535.798 657.093 535.9 654.546 536 652Z" fill="#ECBC70"/>
<path d="M334 634C335.009 637.138 334.818 638.86 334 642C333.782 644.758 333.604 647.503 333.465 650.266C333.422 651.059 333.379 651.852 333.335 652.67C333.199 655.196 333.068 657.723 332.937 660.25C332.846 661.966 332.754 663.682 332.662 665.398C332.437 669.599 332.217 673.799 332 678C331.67 678 331.34 678 331 678C328.033 665.797 328.305 645.39 334 634Z" fill="#284659"/>
<path d="M497 196C496.25 198.375 496.25 198.375 495 201C494.361 201.268 493.721 201.536 493.062 201.812C490.279 203.415 489.543 205.457 488.527 208.426C487.476 213.56 487.785 218.788 488 224C487.01 223.67 486.02 223.34 485 223C483.584 215.018 483.944 208.447 488.656 201.59C493.31 196 493.31 196 497 196Z" fill="#385A6A"/>
<path d="M287 267C287.33 267 287.66 267 288 267C288.33 277.23 288.66 287.46 289 298C289.33 298 289.66 298 290 298C291.333 308.558 291.333 308.558 290 313C289.34 312.67 288.68 312.34 288 312C287.589 310.181 287.589 310.181 287.367 307.801C287.283 306.928 287.199 306.055 287.113 305.156C287.034 304.217 286.956 303.279 286.875 302.312C286.791 301.359 286.707 300.406 286.62 299.425C285.713 288.538 285.599 277.858 287 267Z" fill="#577988"/>
<path d="M583.167 781.401C583.772 781.598 584.377 781.796 585 782C581.517 784.268 578.03 786.528 574.539 788.781C573.352 789.548 572.167 790.317 570.983 791.089C569.278 792.199 567.569 793.301 565.859 794.402C564.833 795.067 563.807 795.733 562.749 796.418C560.398 797.771 558.646 798.554 556 799C557.163 795.51 557.772 795.244 560.824 793.441C561.606 792.973 562.388 792.504 563.193 792.022C564.016 791.54 564.839 791.059 565.688 790.563C567.296 789.607 568.904 788.65 570.512 787.691C571.283 787.238 572.054 786.784 572.849 786.317C574.752 785.152 576.533 783.907 578.332 782.59C581 781 581 781 583.167 781.401Z" fill="#415E6D"/>
<path d="M537 559C542.974 562.735 546.191 566.638 549.812 572.625C550.527 573.77 550.527 573.77 551.256 574.938C552.135 576.347 553.009 577.76 553.874 579.178C554.881 580.808 555.938 582.406 557 584C556.625 586.188 556.625 586.188 556 588C555.602 587.395 555.204 586.791 554.794 586.167C552.971 583.401 551.142 580.638 549.312 577.875C548.687 576.924 548.061 575.972 547.416 574.992C543.471 569.039 543.471 569.039 539.043 563.445C537 561 537 561 537 559Z" fill="#39596B"/>
<path d="M312 709C312.33 709.66 312.66 710.32 313 711C313.66 711 314.32 711 315 711C315.412 711.811 315.825 712.622 316.25 713.457C319.852 720.364 323.677 726.595 328.496 732.758C330 735 330 735 330 738C325.274 734.731 322.772 730.954 319.875 726.125C319.446 725.43 319.016 724.735 318.574 724.02C312 713.278 312 713.278 312 709Z" fill="#456270"/>
<path d="M595 260C595.33 260 595.66 260 596 260C598.288 276.1 597.891 290.863 596 307C595.67 307 595.34 307 595 307C594.67 304.03 594.34 301.06 594 298C594.66 298 595.32 298 596 298C595.861 293.75 595.713 289.5 595.562 285.25C595.523 284.043 595.484 282.837 595.443 281.594C595.401 280.434 595.36 279.273 595.316 278.078C595.28 277.01 595.243 275.942 595.205 274.841C595.03 272.409 594.631 270.34 594 268C594.153 265.292 594.597 262.687 595 260Z" fill="#5C7E8E"/>
<path d="M680 734C682 735 682 735 682.852 737.004C684.53 742.555 685.322 747.204 685 753C682.434 750.435 682.459 748.523 682 745C681.01 745 680.02 745 679 745C678.67 746.65 678.34 748.3 678 750C677.67 750 677.34 750 677 750C676.621 744.07 677.894 739.528 680 734Z" fill="#294D61"/>
<path d="M343 369C346.96 370.32 347.596 372.07 349.812 375.562C352.68 380.029 355.643 384.227 359.066 388.281C360.303 390.558 359.712 391.588 359 394C343 372.48 343 372.48 343 369Z" fill="#3C6175"/>
<path d="M692 772C694.459 775.688 695.451 779.278 696.688 783.5C696.925 784.272 697.163 785.044 697.408 785.84C697.628 786.584 697.848 787.327 698.074 788.094C698.276 788.771 698.478 789.449 698.686 790.146C699 792 699 792 698 795C695.525 794.01 695.525 794.01 693 793C693 792.34 693 791.68 693 791C692.34 790.67 691.68 790.34 691 790C692.32 790 693.64 790 695 790C694.783 789.371 694.567 788.742 694.344 788.094C692.519 782.486 691.673 777.89 692 772Z" fill="#3F677A"/>
<path d="M693 708C693 708.33 693 708.66 693 709C692.395 709.02 691.791 709.04 691.167 709.06C688.403 709.156 685.639 709.265 682.875 709.375C681.924 709.406 680.972 709.437 679.992 709.469C674.948 709.679 670.752 710.152 666 712C662.112 712.783 658.839 713.279 655 712C667.211 706.562 679.922 707.602 693 708Z" fill="#5D7A8B"/>
<path d="M725 726C729.172 726.494 730.873 728.674 733.562 731.75C734.327 732.611 735.091 733.472 735.879 734.359C739.264 738.574 741.474 741.474 741 747C738.336 743.803 735.926 740.483 733.562 737.062C730.879 733.193 728.086 729.554 725 726Z" fill="#3F6073"/>
<path d="M381 418C383.844 419.294 385.917 420.662 388.129 422.863C388.689 423.421 389.249 423.978 389.826 424.553C390.686 425.424 390.686 425.424 391.562 426.312C392.139 426.882 392.716 427.451 393.311 428.037C396.406 431.147 398.934 434.081 401 438C397.773 436.579 395.601 434.858 393.109 432.375C392.046 431.315 392.046 431.315 390.961 430.234C390.231 429.497 389.502 428.76 388.75 428C388.005 427.263 387.26 426.525 386.492 425.766C385.788 425.059 385.085 424.353 384.359 423.625C383.715 422.978 383.07 422.331 382.405 421.664C381 420 381 420 381 418Z" fill="#345569"/>
<path d="M568 280C568.33 280 568.66 280 569 280C570.745 289.736 568.978 298.468 567 308C566.67 308 566.34 308 566 308C565.66 287.021 565.66 287.021 568 280Z" fill="#3D6676"/>
<path d="M335 742C341.001 746.317 346.54 751.02 352 756C350.156 756.648 350.156 756.648 348 757C346.291 755.377 344.626 753.707 343 752C341.669 751.658 340.336 751.322 339 751C337.875 749.062 337.875 749.062 337 747C336.34 746.34 335.68 745.68 335 745C335 744.01 335 743.02 335 742Z" fill="#335061"/>
<path d="M580 655C580.33 655 580.66 655 581 655C581.029 658.479 581.047 661.958 581.062 665.438C581.071 666.411 581.079 667.385 581.088 668.389C581.108 674.348 580.776 680.091 580 686C579.01 685.67 578.02 685.34 577 685C577.33 680.71 577.66 676.42 578 672C578.33 672 578.66 672 579 672C579.33 666.39 579.66 660.78 580 655Z" fill="#5D7B88"/>
<path d="M383 515C383.66 515.33 384.32 515.66 385 516C379.558 522.458 379.558 522.458 376.812 525.125C374.848 527.001 374.848 527.001 373.438 529.75C372.963 530.493 372.489 531.235 372 532C371.01 532 370.02 532 369 532C369.581 528.699 370.549 527.089 372.941 524.766C373.816 523.905 373.816 523.905 374.709 523.027C375.321 522.441 375.932 521.854 376.562 521.25C377.178 520.648 377.794 520.046 378.428 519.426C379.945 517.944 381.472 516.471 383 515Z" fill="#436578"/>
<path d="M300 234C300.75 235.562 300.75 235.562 301 238C300.086 239.73 299.16 241.457 298.125 243.117C296.428 245.957 295.249 248.94 294 252C293.34 252 292.68 252 292 252C291.67 253.65 291.34 255.3 291 257C289.865 253.688 290.07 252.093 291.582 248.961C291.937 248.216 292.292 247.471 292.658 246.703C293.039 245.935 293.42 245.167 293.813 244.375C294.182 243.599 294.551 242.823 294.932 242.023C297.698 236.302 297.698 236.302 300 234Z" fill="#436678"/>
<path d="M417 486C417.66 486 418.32 486 419 486C418.813 489.854 418.084 490.922 415.199 493.605C414.039 494.48 412.868 495.34 411.688 496.188C410.814 496.844 410.814 496.844 409.924 497.514C407.067 499.633 404.259 501.56 401 503C404.768 497.438 408.338 493.632 414 490C414.99 489.34 415.98 488.68 417 488C417 487.34 417 486.68 417 486Z" fill="#2E5065"/>
<path d="M339 700C341.497 703.177 343.54 706.505 345.562 710C346.162 711.031 346.761 712.062 347.379 713.125C348.657 715.392 349.868 717.658 351 720C344.202 716.457 341.276 710.364 338.625 703.375C338.419 702.591 338.213 701.808 338 701C338.33 700.67 338.66 700.34 339 700Z" fill="#52666D"/>
<path d="M339 566C339 569.739 337.947 570.777 335.75 573.75C332.877 577.725 330.341 581.694 328 586C327.67 586 327.34 586 327 586C326.359 581.045 328.511 578.147 331.313 574.312C331.717 573.732 332.121 573.151 332.537 572.553C334.527 569.754 336.114 567.924 339 566Z" fill="#355364"/>
<path d="M468.281 449.305C469.132 449.649 469.132 449.649 470 450C468.251 451.439 466.501 452.876 464.75 454.313C463.775 455.113 462.801 455.914 461.797 456.738C459.563 458.544 457.313 460.298 455 462C454.34 461.67 453.68 461.34 453 461C456.057 456.614 462.393 448.518 468.281 449.305Z" fill="#375A6D"/>
<path d="M471 781C468.962 782.674 467.467 783.89 464.875 784.5C462.599 784.886 462.599 784.886 461 788C459.35 786.35 457.7 784.7 456 783C461.129 780.896 465.561 780.783 471 781Z" fill="#32536A"/>
<path d="M670 771C671.136 774.409 670.867 775.003 669.562 778.188C669.275 778.903 668.988 779.618 668.691 780.355C668.463 780.898 668.235 781.441 668 782C669.98 782.66 671.96 783.32 674 784C674 784.33 674 784.66 674 785C671.25 785.25 671.25 785.25 668 785C665.625 783 665.625 783 664 781C664.66 781 665.32 781 666 781C666.205 780.362 666.41 779.724 666.621 779.066C666.891 778.24 667.16 777.414 667.438 776.562C667.704 775.739 667.971 774.915 668.246 774.066C669 772 669 772 670 771Z" fill="#3E5E77"/>
<path d="M333 405C333.66 405 334.32 405 335 405C335 405.66 335 406.32 335 407C335.743 407 336.485 407 337.25 407C341.05 408.382 341.697 410.472 343.398 413.992C344 416 344 416 343 419C341.33 416.856 339.664 414.71 338 412.562C337.523 411.951 337.046 411.339 336.555 410.709C333 406.113 333 406.113 333 405Z" fill="#3D6579"/>
<path d="M636 723C636.66 723.33 637.32 723.66 638 724C637.402 724.557 636.804 725.114 636.188 725.688C633.995 728.006 632.606 730.256 631 733C628.62 736.301 626.827 738.496 623 740C624.538 736.565 626.574 733.856 628.938 730.938C629.627 730.08 630.317 729.223 631.027 728.34C632.616 726.455 634.221 724.701 636 723Z" fill="#507381"/>
<path d="M544 626C544.99 626.33 545.98 626.66 547 627C550.033 633.242 551.847 639.228 550 646C549.67 646 549.34 646 549 646C548.352 643.605 547.707 641.209 547.062 638.812C546.88 638.139 546.698 637.465 546.51 636.771C545.551 633.199 544.671 629.638 544 626Z" fill="#56666B"/>
<path d="M638 793C641.767 794.256 642.395 795.675 644.562 798.938C647.047 802.66 647.047 802.66 650 806C649.67 806.99 649.34 807.98 649 809C647.724 807.609 646.454 806.212 645.188 804.812C644.48 804.035 643.772 803.258 643.043 802.457C638 796.392 638 796.392 638 793Z" fill="#406070"/>
<path d="M413 781C419.006 780.75 424.336 780.852 430 783C432.062 786 432.062 786 433 789C432.67 789.66 432.34 790.32 432 791C429.474 788.637 428.112 787.335 427 784C422.38 783.34 417.76 782.68 413 782C413 781.67 413 781.34 413 781Z" fill="#234155"/>
<path d="M407 755C412.447 754.903 417.639 754.871 423 756C423 756.66 423 757.32 423 758C424.32 758.33 425.64 758.66 427 759C413.367 758.221 413.367 758.221 407 756C407 755.67 407 755.34 407 755Z" fill="#405360"/>
<path d="M590 321C592.026 327.235 589.545 335.163 587 341C586.01 341.33 585.02 341.66 584 342C585.886 334.964 587.869 327.966 590 321Z" fill="#314F61"/>
<path d="M570 222C575.554 223.084 578.152 225.881 581.777 229.93C583 232 583 232 582.691 234.258C582.463 234.833 582.235 235.408 582 236C580.185 234.044 578.373 232.086 576.562 230.125C576.046 229.569 575.53 229.014 574.998 228.441C571.113 224.227 571.113 224.227 570 222Z" fill="#315A6D"/>
<path d="M337 624C337.33 624 337.66 624 338 624C338.248 629.773 337.337 634.834 336 640.438C335.809 641.264 335.618 642.091 335.422 642.943C334.955 644.964 334.478 646.982 334 649C333.67 649 333.34 649 333 649C332.609 640.602 333.585 631.72 337 624Z" fill="#67797D"/>
<path d="M355 589C355.66 589 356.32 589 357 589C355.515 593.043 353.571 596.611 351.375 600.312C350.743 601.381 350.112 602.45 349.461 603.551C348.979 604.359 348.497 605.167 348 606C347 604 347 604 348.125 600.312C349.839 595.992 352.071 592.605 355 589Z" fill="#506670"/>
<path d="M481 737C480.34 737 479.68 737 479 737C479 737.66 479 738.32 479 739C472.622 740.173 466.497 741.295 460 741C463.382 739.102 466.734 738.198 470.5 737.312C471.624 737.04 472.748 736.768 473.906 736.488C476.768 736.037 478.322 736.022 481 737Z" fill="#EEBB67"/>
<path d="M562 822C562.99 822.66 563.98 823.32 565 824C562.734 825.033 560.463 826.051 558.188 827.062C557.224 827.504 557.224 827.504 556.24 827.955C551.34 830.113 551.34 830.113 548 829C548.66 829 549.32 829 550 829C550 828.34 550 827.68 550 827C551.93 826.108 553.869 825.237 555.812 824.375C556.891 823.888 557.97 823.4 559.082 822.898C560.045 822.602 561.008 822.305 562 822Z" fill="#4A6A7C"/>
<path d="M632 817C635.522 818.564 638.271 820.695 641.25 823.125C642.142 823.849 643.034 824.574 643.953 825.32C644.629 825.875 645.304 826.429 646 827C644.328 827.77 644.328 827.77 642 828C639.422 826.199 639.422 826.199 636.75 823.688C635.858 822.866 634.966 822.045 634.047 821.199C632 819 632 819 632 817Z" fill="#3B596A"/>
<path d="M643 746C643 749.139 642.584 750.087 641.125 752.75C639.194 756.449 638.011 759.958 637 764C636.67 764 636.34 764 636 764C635.372 757.09 636.926 752.642 641 747C641.66 746.67 642.32 746.34 643 746Z" fill="#486C7D"/>
<path d="M302 349C304.442 352.031 306.13 355.09 307.75 358.625C308.199 359.587 308.647 360.548 309.109 361.539C309.403 362.351 309.697 363.163 310 364C309.67 364.66 309.34 365.32 309 366C304.7 362.131 302.219 356.677 301.75 350.938C301.833 350.298 301.915 349.659 302 349Z" fill="#36576A"/>
<path d="M594 307C594.33 307 594.66 307 595 307C594.513 314.591 593.002 321.671 591 329C590.013 325.818 590.003 323.3 590.375 320C590.465 319.154 590.556 318.309 590.648 317.438C590.966 315.234 591.414 313.145 592 311C592.66 311 593.32 311 594 311C594 309.68 594 308.36 594 307Z" fill="#516E7D"/>
<path d="M438 798C440 798 440 798 441.586 799.574C442.176 800.272 442.767 800.969 443.375 801.688C444.301 802.776 444.301 802.776 445.246 803.887C447.195 806.234 449.122 808.596 451 811C446.732 810.526 444.825 808.042 442 805C441.423 804.484 440.845 803.969 440.25 803.438C438.735 801.695 438.388 800.251 438 798Z" fill="#375669"/>
<path d="M619 749C620.298 752.893 619.317 754.119 618 758C617.25 761.653 616.615 765.322 616 769C615.67 769 615.34 769 615 769C615.141 766.395 615.287 763.791 615.438 761.188C615.496 760.081 615.496 760.081 615.557 758.951C615.744 755.769 615.987 753.038 617 750C617.66 749.67 618.32 749.34 619 749Z" fill="#294A5F"/>
<path d="M479 755C474.792 757.805 471.75 758.128 466.75 758.063C465.858 758.054 464.966 758.044 464.047 758.035C463.371 758.024 462.696 758.012 462 758C462 757.34 462 756.68 462 756C467.666 754.775 473.237 754.908 479 755Z" fill="#455A65"/>
<path d="M572 707C573 710 573 710 571.566 713.137C570.909 714.326 570.24 715.509 569.563 716.688C569.224 717.294 568.886 717.901 568.537 718.525C567.7 720.022 566.851 721.512 566 723C564.935 720.27 564.92 719.207 565.996 716.422C566.71 715.099 566.71 715.099 567.438 713.75C567.911 712.858 568.384 711.966 568.871 711.047C569.244 710.371 569.616 709.696 570 709C570.66 709 571.32 709 572 709C572 708.34 572 707.68 572 707Z" fill="#466C7A"/>
<path d="M332 663C332.33 663 332.66 663 333 663C333.061 663.978 333.121 664.957 333.184 665.965C333.633 673 334.14 680.001 335 687C334.67 686.34 334.34 685.68 334 685C333.34 685 332.68 685 332 685C331.097 679.859 331.02 675.303 331.437 670.062C331.49 669.379 331.542 668.695 331.596 667.99C331.724 666.326 331.861 664.663 332 663Z" fill="#748381"/>
<path d="M536 375C536 378.843 534.698 380.418 532.625 383.625C531.999 384.607 531.372 385.59 530.727 386.602C529 389 529 389 527 390C527.563 386.077 528.701 383.509 530.938 380.25C531.462 379.471 531.987 378.693 532.527 377.891C534 376 534 376 536 375Z" fill="#335569"/>
<path d="M324 327C326.578 329.578 327.376 332.103 328.688 335.5C329.145 336.665 329.603 337.831 330.074 339.031C331 342 331 342 330 344C329.34 344 328.68 344 328 344C323.408 332.478 323.408 332.478 324 327Z" fill="#426D82"/>
<path d="M325 247C325 250.137 324.571 251.136 323.125 253.812C321.394 257.133 320.079 260.403 319 264C318.67 264 318.34 264 318 264C317.314 257.549 319.271 253.266 323 248C323.66 247.67 324.32 247.34 325 247Z" fill="#476879"/>
<path d="M675 754C676.278 757.612 675.713 760.046 674.688 763.688C674.423 764.661 674.159 765.634 673.887 766.637C673 769 673 769 671 770C670.875 762.375 670.875 762.375 672 759C672.66 759 673.32 759 674 759C674.33 757.35 674.66 755.7 675 754Z" fill="#2A5468"/>
<path d="M321 724C324.89 727.591 327.897 731.739 331 736C330.67 736.66 330.34 737.32 330 738C326.023 735.128 323.411 732.286 321 728C321 726.68 321 725.36 321 724Z" fill="#365565"/>
<path d="M389 464C392.478 465.516 394.956 467.577 397.75 470.125C398.949 471.212 398.949 471.212 400.172 472.32C401.077 473.152 401.077 473.152 402 474C401.01 474.33 400.02 474.66 399 475C397.027 473.707 397.027 473.707 394.938 471.812C394.245 471.2 393.553 470.588 392.84 469.957C391.046 468.049 390.024 466.394 389 464Z" fill="#375568"/>
<path d="M496 236C498.866 237.129 501.687 238.307 504.5 239.562C507.407 240.757 509.913 241.532 513 242C513 242.33 513 242.66 513 243C502.083 243.572 502.083 243.572 498 240C496.688 237.812 496.688 237.812 496 236Z" fill="#325163"/>
<path d="M497 196C495.516 200.701 495.516 200.701 493.062 202.125C492.382 202.414 491.701 202.702 491 203C489.291 204.541 489.291 204.541 488 206C488 202.479 488.583 201.9 490.812 199.312C491.596 198.379 491.596 198.379 492.395 197.426C494 196 494 196 497 196Z" fill="#3D6074"/>
<path d="M481 800C481.568 800.193 482.137 800.387 482.723 800.586C487.454 802.181 492.188 803.669 497 805C495.355 806.105 495.355 806.105 493 807C490.238 806.426 490.238 806.426 487.312 805.312C486.339 804.958 485.366 804.604 484.363 804.238C482 803 482 803 481 800Z" fill="#4B687A"/>
<path d="M293 322C295.109 325.164 296.058 327.88 297.188 331.5C297.552 332.645 297.917 333.789 298.293 334.969C299 338 299 338 298 341C298 340.34 298 339.68 298 339C297.34 339 296.68 339 296 339C293.746 333.439 293.4 327.921 293 322Z" fill="#2E4E5F"/>
<path d="M559 214C565.193 215.29 569.153 217.996 574 222C573.67 222.66 573.34 223.32 573 224C571.412 223.091 569.83 222.172 568.25 221.25C567.368 220.74 566.487 220.229 565.578 219.703C563.035 218.023 561.071 216.226 559 214Z" fill="#3D6373"/>
<path d="M472 824C478.005 824.649 483.401 826.858 489 829C485.289 830.33 482.583 829.687 478.812 828.75C477.213 828.371 477.213 828.371 475.582 827.984C474.73 827.66 473.878 827.335 473 827C472.67 826.01 472.34 825.02 472 824Z" fill="#2B5366"/>
<path d="M369 767C374.07 767.654 378.42 769.855 383 772C378.907 773.364 375.992 772.439 372 771C370 769.438 370 769.438 369 768C369 767.67 369 767.34 369 767Z" fill="#2E5569"/>
<path d="M704 713C709.707 713.466 713.159 714.938 718 718C715.27 719.065 714.207 719.08 711.422 718.004C710.54 717.528 709.658 717.053 708.75 716.562C707.858 716.089 706.966 715.616 706.047 715.129C705.371 714.756 704.696 714.384 704 714C704 713.67 704 713.34 704 713Z" fill="#3E5F71"/>
<path d="M374 740C378.498 741.687 382.729 743.817 387 746C387 746.33 387 746.66 387 747C382.271 746.536 378.819 745.92 375 743C374.67 742.01 374.34 741.02 374 740Z" fill="#606D70"/>
<path d="M290 313C292.085 314.709 292.925 315.677 293.547 318.34C293.647 319.626 293.647 319.626 293.75 320.938C293.827 321.792 293.905 322.647 293.984 323.527C293.999 325.893 293.69 327.748 293 330C289.556 318.478 289.556 318.478 290 313Z" fill="#547589"/>
<path d="M365 535C365.33 535.66 365.66 536.32 366 537C365.34 537.433 364.68 537.866 364 538.312C363.34 538.869 362.68 539.426 362 540C362 540.99 362 541.98 362 543C360.68 543 359.36 543 358 543C357.67 543.66 357.34 544.32 357 545C357.478 540.694 358.659 538.751 362 536C362.99 535.67 363.98 535.34 365 535Z" fill="#345669"/>
<path d="M344 417C347 420 350 423 353 426C352.67 426.66 352.34 427.32 352 428C345.295 422.906 345.295 422.906 344.062 419.125C344.042 418.424 344.021 417.723 344 417Z" fill="#325064"/>
<path d="M313 219C313.66 219.33 314.32 219.66 315 220C313.758 221.465 312.506 222.922 311.25 224.375C310.554 225.187 309.858 225.999 309.141 226.836C307.141 228.858 305.605 229.932 303 231C304.477 227.548 306.438 225.35 309.125 222.75C309.849 222.044 310.574 221.337 311.32 220.609C311.875 220.078 312.429 219.547 313 219Z" fill="#4F7382"/>
<path d="M385 194C390.352 194.324 393.283 197.497 397 201C396.67 201.66 396.34 202.32 396 203C395.051 202.34 394.103 201.68 393.125 201C390.338 198.82 390.338 198.82 388 199C387.876 198.361 387.752 197.721 387.625 197.062C387.316 196.042 387.316 196.042 387 195C386.34 194.67 385.68 194.34 385 194Z" fill="#4E6F80"/>
<path d="M688 763C688.33 763.66 688.66 764.32 689 765C689.66 765 690.32 765 691 765C692.283 768.85 692.066 771.947 692 776C689.084 771.626 687.697 768.295 688 763Z" fill="#31596E"/>
<path d="M680 734C680.66 734.33 681.32 734.66 682 735C682.633 737.285 682.633 737.285 683.125 740.062C683.293 740.982 683.46 741.901 683.633 742.848C683.754 743.558 683.875 744.268 684 745C682.68 743.68 681.36 742.36 680 741C679.01 741.495 679.01 741.495 678 742C678.875 736.25 678.875 736.25 680 734Z" fill="#5A798A"/>
<path d="M453 459C453.66 459.33 454.32 459.66 455 460C452.667 462.333 450.333 464.667 448 467C446.68 466.67 445.36 466.34 444 466C446.97 463.69 449.94 461.38 453 459Z" fill="#4A6E80"/>
<path d="M352 383C355.478 384.88 358.078 386.476 360 390C359.57 392.129 359.57 392.129 359 394C357.828 392.546 356.662 391.087 355.5 389.625C354.525 388.407 354.525 388.407 353.531 387.164C352 385 352 385 352 383Z" fill="#305268"/>
<path d="M546 356C546.99 356.33 547.98 356.66 549 357C547.02 360.63 545.04 364.26 543 368C542.67 368 542.34 368 542 368C542.468 363.224 543.243 359.955 546 356Z" fill="#335468"/>
<path d="M613 770C609.996 772.003 608.29 772.493 604.812 773.125C603.461 773.376 603.461 773.376 602.082 773.633C601.395 773.754 600.708 773.875 600 774C603.586 769.011 607.382 769.568 613 770Z" fill="#355465"/>
<path d="M698 731C699.462 731.229 700.92 731.484 702.375 731.75C703.593 731.959 703.593 731.959 704.836 732.172C707 733 707 733 708.289 735.078C708.641 736.029 708.641 736.029 709 737C708.237 736.67 707.474 736.34 706.688 736C704.009 734.826 704.009 734.826 701 735C700.01 734.34 699.02 733.68 698 733C698 732.34 698 731.68 698 731Z" fill="#4A6593"/>
<path d="M577 685C577.66 685.33 578.32 685.66 579 686C578.885 687.438 578.758 688.876 578.625 690.312C578.555 691.113 578.486 691.914 578.414 692.738C578 695 578 695 576 698C574.486 693.155 575.634 689.741 577 685Z" fill="#47616E"/>
<path d="M556 334C557.125 335.625 557.125 335.625 558 338C557.375 341.188 557.375 341.188 556 344C553.914 344.676 553.914 344.676 552 345C552.477 343.541 552.957 342.083 553.438 340.625C553.704 339.813 553.971 339.001 554.246 338.164C555 336 555 336 556 334Z" fill="#456A7F"/>
<path d="M592 775C592.66 775.33 593.32 775.66 594 776C591.879 778.333 589.984 779.915 587 781C584.871 780.547 584.871 780.547 583 780C584.453 779.136 585.912 778.284 587.375 777.438C588.593 776.724 588.593 776.724 589.836 775.996C590.55 775.667 591.264 775.339 592 775Z" fill="#486776"/>
<path d="M500 745C500.66 745.33 501.32 745.66 502 746C500.366 747.708 499.131 748.935 497 750C494.667 750.04 492.333 750.043 490 750C493.235 747.844 496.372 746.385 500 745Z" fill="#5B6C71"/>
<path d="M335 742C341.571 747.143 341.571 747.143 343 751C342.01 751.33 341.02 751.66 340 752C339.546 751.216 339.093 750.433 338.625 749.625C337.116 746.963 337.116 746.963 335 745C335 744.01 335 743.02 335 742Z" fill="#415D6A"/>
<path d="M521 396C521 399.589 520.336 400.109 518 402.688C517.443 403.31 516.886 403.933 516.312 404.574C515.879 405.045 515.446 405.515 515 406C514.67 405.01 514.34 404.02 514 403C518.111 397.444 518.111 397.444 521 396Z" fill="#335368"/>
<path d="M490 229C493.288 232.11 495.837 235.016 498 239C494.634 237.557 492.335 235.835 490 233C490 231.68 490 230.36 490 229Z" fill="#3C6475"/>
<path d="M317 216C318.32 216.33 319.64 216.66 321 217C318.03 219.64 315.06 222.28 312 225C311.34 224.67 310.68 224.34 310 224C312.31 221.36 314.62 218.72 317 216Z" fill="#294C61"/>
<path d="M722 792C722.66 792.99 723.32 793.98 724 795C720.375 800.875 720.375 800.875 717 802C718.335 798.406 719.96 795.245 722 792Z" fill="#496A7D"/>
<path d="M384 747C389.75 746.875 389.75 746.875 392 748C392 748.66 392 749.32 392 750C393.32 750.66 394.64 751.32 396 752C391.435 751.457 388.027 750.205 384 748C384 747.67 384 747.34 384 747Z" fill="#374D5C"/>
<path d="M558 590C561 591 561 591 562.812 593.812C564 597 564 597 563.074 599.199C562.72 599.793 562.365 600.388 562 601C561.329 599.544 560.663 598.085 560 596.625C559.629 595.813 559.257 595.001 558.875 594.164C558 592 558 592 558 590Z" fill="#335162"/>
<path d="M535 335C535.955 337.17 536.144 338.563 535.398 340.824C534.641 342.568 533.824 344.286 533 346C532.34 346 531.68 346 531 346C531.607 341.872 533.038 338.668 535 335Z" fill="#4D9CCC"/>
<path d="M564.188 793.375C565.085 793.684 565.085 793.684 566 794C564.715 794.864 563.422 795.716 562.125 796.562C561.406 797.038 560.686 797.514 559.945 798.004C559.303 798.333 558.661 798.661 558 799C557.34 798.67 556.68 798.34 556 798C560.945 792.819 560.945 792.819 564.188 793.375Z" fill="#325163"/>
<path d="M567 609C567.99 609.33 568.98 609.66 570 610C570.766 611.707 570.766 611.707 571.25 613.812C571.505 614.843 571.505 614.843 571.766 615.895C572.022 618.195 571.69 619.806 571 622C570.329 620.21 569.664 618.418 569 616.625C568.629 615.627 568.257 614.63 567.875 613.602C567 611 567 611 567 609Z" fill="#264658"/>
<path d="M353 548C353 552.39 350.872 553.769 348 557C347.67 555.68 347.34 554.36 347 553C348.98 551.35 350.96 549.7 353 548Z" fill="#345364"/>
<path d="M386 513C386.99 513.33 387.98 513.66 389 514C386.03 516.97 383.06 519.94 380 523C379.34 522.67 378.68 522.34 378 522C380.64 519.03 383.28 516.06 386 513Z" fill="#1C4159"/>
<path d="M530 425C530.66 426.32 531.32 427.64 532 429C530.35 430.32 528.7 431.64 527 433C526.25 431.25 526.25 431.25 526 429C527.938 426.75 527.938 426.75 530 425Z" fill="#3D6980"/>
<path d="M326 395C329.265 396.804 330.889 397.834 333 401C332.625 403.188 332.625 403.188 332 405C330.994 403.713 329.996 402.42 329 401.125C328.443 400.406 327.886 399.686 327.312 398.945C326 397 326 397 326 395Z" fill="#4A667A"/>
<path d="M301 343C301.66 343.33 302.32 343.66 303 344C303.625 347.062 303.625 347.062 304 350C302.515 350.99 302.515 350.99 301 352C299.634 349.268 299.872 347.018 300 344C300.33 343.67 300.66 343.34 301 343Z" fill="#386178"/>
<path d="M557 243C559.438 243.625 559.438 243.625 562 245C562.812 248.125 562.812 248.125 563 251C561.125 250.375 561.125 250.375 559 249C557.75 245.875 557.75 245.875 557 243Z" fill="#2F5469"/>
<path d="M490 778C486.965 780.024 485.806 780.321 482.312 780.625C481.504 780.7 480.696 780.775 479.863 780.852C479.248 780.901 478.634 780.95 478 781C478.99 780.67 479.98 780.34 481 780C481 779.34 481 778.68 481 778C484.325 776.892 486.622 777.156 490 778Z" fill="#4D7584"/>
<path d="M686 752C688.003 755.004 688.493 756.71 689.125 760.188C689.376 761.539 689.376 761.539 689.633 762.918C689.754 763.605 689.875 764.292 690 765C689.01 764.67 688.02 764.34 687 764C686.455 759.915 686 756.127 686 752Z" fill="#547689"/>
<path d="M735 737C738.161 738.37 738.993 738.989 741 742C741.125 744.688 741.125 744.688 741 747C738.257 743.8 736.37 740.995 735 737Z" fill="#2F5162"/>
<path d="M526 388C526.33 388.99 526.66 389.98 527 391C524.847 394.23 523.729 395.757 520 397C521.527 393.564 523.599 390.881 526 388Z" fill="#446579"/>
<path d="M596 800C597.98 800 599.96 800 602 800C599.647 802.724 597.375 803.814 594 805C594.66 803.35 595.32 801.7 596 800Z" fill="#436476"/>
<path d="M530 757C531.32 757.33 532.64 757.66 534 758C531.69 759.65 529.38 761.3 527 763C526.34 762.67 525.68 762.34 525 762C527.25 759.438 527.25 759.438 530 757Z" fill="#496678"/>
<path d="M640 720C641.32 720.33 642.64 720.66 644 721C640.535 723.97 640.535 723.97 637 727C636.34 726.67 635.68 726.34 635 726C636.65 724.02 638.3 722.04 640 720Z" fill="#2B4C60"/>
<path d="M535 643C537.495 645.495 537.359 646.673 537.625 650.125C537.7 651.035 537.775 651.945 537.852 652.883C537.925 653.931 537.925 653.931 538 655C537.01 654.67 536.02 654.34 535 654C535 650.37 535 646.74 535 643Z" fill="#E8C692"/>
<path d="M415 492C415.66 492.33 416.32 492.66 417 493C414.03 495.64 411.06 498.28 408 501C407.34 500.34 406.68 499.68 406 499C408.97 496.69 411.94 494.38 415 492Z" fill="#336A8A"/>
<path d="M370 406C372.629 407.522 374.844 408.844 377 411C377 411.99 377 412.98 377 414C376.34 414 375.68 414 375 414C370 408.524 370 408.524 370 406Z" fill="#32546A"/>
<path d="M596 291C596.33 291 596.66 291 597 291C597.111 296.458 596.917 301.615 596 307C595.67 307 595.34 307 595 307C594.67 304.03 594.34 301.06 594 298C594.66 298 595.32 298 596 298C596 295.69 596 293.38 596 291Z" fill="#6C8C96"/>
<path d="M317 260C317.33 260 317.66 260 318 260C318 262.64 318 265.28 318 268C317.34 268 316.68 268 316 268C316 269.65 316 271.3 316 273C315.67 273 315.34 273 315 273C314.807 268.176 315.242 264.504 317 260Z" fill="#264558"/>
<path d="M349 237C355.523 237.615 355.523 237.615 357.938 239.562C358.288 240.037 358.639 240.511 359 241C358.01 241.495 358.01 241.495 357 242C355.055 241.223 355.055 241.223 352.875 240.062C352.151 239.682 351.426 239.302 350.68 238.91C350.125 238.61 349.571 238.309 349 238C349 237.67 349 237.34 349 237Z" fill="#476B7D"/>
<path d="M643 801C645.629 802.522 647.844 803.844 650 806C649.67 806.99 649.34 807.98 649 809C647.994 808.048 646.995 807.088 646 806.125C645.443 805.591 644.886 805.058 644.312 804.508C643 803 643 803 643 801Z" fill="#325367"/>
<path d="M611.25 793.75C612.611 793.874 612.611 793.874 614 794C611.562 796.438 609.148 797.623 606 799C605.34 798.67 604.68 798.34 604 798C606.411 795.033 607.347 794.05 611.25 793.75Z" fill="#527B8D"/>
<path d="M305 635C305.33 635 305.66 635 306 635C306.33 637.97 306.66 640.94 307 644C306.34 644 305.68 644 305 644C304.67 645.32 304.34 646.64 304 648C303.923 643.484 303.898 639.409 305 635Z" fill="#668798"/>
<path d="M308 623C308.33 623 308.66 623 309 623C309.369 630.385 309.369 630.385 307.5 633.5C307.005 633.995 306.51 634.49 306 635C306.142 633.562 306.289 632.125 306.438 630.688C306.519 629.887 306.6 629.086 306.684 628.262C307 626 307 626 308 623Z" fill="#5D7E8B"/>
<path d="M574 366C574.33 366.66 574.66 367.32 575 368C574.223 369.727 574.223 369.727 573.063 371.625C572.382 372.739 571.701 373.852 571 375C570.103 372.489 569.868 371.355 570.813 368.812C572 367 572 367 574 366Z" fill="#486677"/>
<path d="M740 799C740.33 799 740.66 799 741 799C740.75 802.375 740.75 802.375 740 806C737.938 807.438 737.938 807.438 736 808C737.199 804.917 738.477 801.937 740 799Z" fill="#324F61"/>
<path d="M618 796C618.66 797.32 619.32 798.64 620 800C620.66 800 621.32 800 622 800C622.33 801.98 622.66 803.96 623 806C620.661 803.873 619.193 801.938 618 799C618 798.01 618 797.02 618 796Z" fill="#577484"/>
<path d="M473 795C476.96 796.98 476.96 796.98 481 799C481 799.33 481 799.66 481 800C478.69 799.67 476.38 799.34 474 799C473.67 797.68 473.34 796.36 473 795Z" fill="#47697A"/>
<path d="M744 792C745.392 796.176 743.823 798.135 742 802C741.67 802 741.34 802 741 802C740.875 796.25 740.875 796.25 742 794C742.66 794 743.32 794 744 794C744 793.34 744 792.68 744 792Z" fill="#527281"/>
<path d="M504 771C504.66 771.33 505.32 771.66 506 772C505.67 772.66 505.34 773.32 505 774C502.934 774.414 502.934 774.414 500.438 774.625C499.611 774.7 498.785 774.775 497.934 774.852C496.976 774.925 496.976 774.925 496 775C498.689 773.208 500.953 772.016 504 771Z" fill="#335165"/>
<path d="M741 744C742.746 746.619 743.387 748.038 744 751C742.515 751.99 742.515 751.99 741 753C739.875 747.375 739.875 747.375 741 744Z" fill="#446E84"/>
<path d="M310 701C312.262 703.262 313.039 704.97 314 708C313.67 708.99 313.34 709.98 313 711C313 710.34 313 709.68 313 709C312.34 709 311.68 709 311 709C309.646 706.291 309.935 703.991 310 701Z" fill="#304C5C"/>
<path d="M513 404C513.688 405.812 513.688 405.812 514 408C512.562 409.75 512.562 409.75 511 411C510.01 410.67 509.02 410.34 508 410C509.65 408.02 511.3 406.04 513 404Z" fill="#426478"/>
<path d="M523 359C523.66 359 524.32 359 525 359C523.814 362.375 522.724 364.647 520 367C520.547 363.625 521.055 361.918 523 359Z" fill="#51A1D0"/>
<path d="M583 343C583.33 343 583.66 343 584 343C584.125 348.75 584.125 348.75 583 351C582.34 351 581.68 351 581 351C580.67 351.66 580.34 352.32 580 353C580.61 349.442 581.578 346.317 583 343Z" fill="#304E5F"/>
<path d="M708 809C708.66 809.33 709.32 809.66 710 810C708.35 811.65 706.7 813.3 705 815C704.01 814.67 703.02 814.34 702 814C702.804 813.361 703.609 812.721 704.438 812.062C706.275 810.594 706.275 810.594 708 809Z" fill="#4A6B7A"/>
<path d="M692 772C694.296 775.445 694.54 777.938 695 782C694.67 781.34 694.34 780.68 694 780C693.34 780 692.68 780 692 780C692 777.36 692 774.72 692 772Z" fill="#537887"/>
<path d="M495 776C494.67 776.66 494.34 777.32 494 778C491.36 778 488.72 778 486 778C489.037 774.963 490.938 774.646 495 776Z" fill="#2D4E65"/>
<path d="M377 772C379.97 772.33 382.94 772.66 386 773C386.33 773.99 386.66 774.98 387 776C383.442 775.39 380.317 774.422 377 773C377 772.67 377 772.34 377 772Z" fill="#5B808E"/>
<path d="M348 683C348.33 683.66 348.66 684.32 349 685C349.66 685 350.32 685 351 685C351.625 686.812 351.625 686.812 352 689C351.01 690.485 351.01 690.485 350 692C348.502 688.629 348 686.796 348 683Z" fill="#E9C083"/>
<path d="M346 672C346.33 672.99 346.66 673.98 347 675C347.66 675 348.32 675 349 675C348.67 677.64 348.34 680.28 348 683C345.674 679.366 345.837 676.229 346 672Z" fill="#ECC88D"/>
<path d="M345 608C345.33 608.66 345.66 609.32 346 610C345.064 612.36 344.067 614.696 343 617C341.875 615.25 341.875 615.25 341 613C341.925 610.301 342.424 609.288 345 608Z" fill="#546974"/>
<path d="M552 580C555 581 555 581 557 584C556.625 586.188 556.625 586.188 556 588C552 582.25 552 582.25 552 580Z" fill="#2E4F60"/>
<path d="M518 579C518.66 579 519.32 579 520 579C521.389 580.961 522.726 582.962 524 585C523.67 585.66 523.34 586.32 523 587C520.201 584.472 518.542 582.796 518 579Z" fill="#384F5C"/>
<path d="M400 475C404.75 475.75 404.75 475.75 407 478C406.67 478.99 406.34 479.98 406 481C403.979 479.358 401.98 477.691 400 476C400 475.67 400 475.34 400 475Z" fill="#446374"/>
<path d="M481 436C482.32 436.33 483.64 436.66 485 437C483.02 438.98 481.04 440.96 479 443C478.34 442.67 477.68 442.34 477 442C477.474 441.567 477.949 441.134 478.438 440.688C480.237 438.977 480.237 438.977 481 436Z" fill="#204F65"/>
<path d="M541 365C541.75 366.75 541.75 366.75 542 369C540.062 371.25 540.062 371.25 538 373C538 369.424 539.088 367.947 541 365Z" fill="#496D7E"/>
<path d="M337 359C340 360 340 360 342 363C341.625 365.188 341.625 365.188 341 367C337 361.25 337 361.25 337 359Z" fill="#325669"/>
<path d="M549 208C551.97 208.495 551.97 208.495 555 209C555.33 209.99 555.66 210.98 556 212C555.01 212.33 554.02 212.66 553 213C551.68 211.35 550.36 209.7 549 208Z" fill="#37586E"/>
<path d="M395 202C396.98 202.99 396.98 202.99 399 204C399 206.31 399 208.62 399 211C397.009 208.014 396.059 205.403 395 202Z" fill="#2C4D5F"/>
<path d="M680 816C682.31 816 684.62 816 687 816C685.02 816.99 685.02 816.99 683 818C682.01 817.34 681.02 816.68 680 816Z" fill="#2A2AD4"/>
<path d="M451 512C451.99 512.33 452.98 512.66 454 513C453.67 513.99 453.34 514.98 453 516C452.01 515.01 451.02 514.02 450 513C450.33 512.67 450.66 512.34 451 512Z" fill="#424AB4"/>
<path d="M641 828C642.98 828.99 642.98 828.99 645 830C644.34 830.66 643.68 831.32 643 832C643 831.34 643 830.68 643 830C642.34 830 641.68 830 641 830C641 829.34 641 828.68 641 828Z" fill="#3B4BB3"/>
<path d="M411 486C412.485 486.99 412.485 486.99 414 488C413.01 488 412.02 488 411 488C411 487.34 411 486.68 411 486Z" fill="#6E6E90"/>
<path d="M659 838C660.485 838.99 660.485 838.99 662 840C661.01 840 660.02 840 659 840C659 839.34 659 838.68 659 838Z" fill="#2020DF"/>
<path d="M671 816C675 817 675 817 675 817L671 816Z" fill="#3040BF"/>
<path d="M297 347C297.66 347 298.32 347 299 347C299 347.66 299 348.32 299 349C298.34 349 297.68 349 297 349C297 348.34 297 347.68 297 347Z" fill="#40609F"/>
<path d="M369 246C373 247 373 247 373 247L369 246Z" fill="#5555AA"/>
<path d="M496 835C499 836 499 836 499 836L496 835Z" fill="#5555AA"/>
<path d="M633 822C633.33 822.66 633.66 823.32 634 824C633.34 823.67 632.68 823.34 632 823C632.33 822.67 632.66 822.34 633 822Z" fill="#2A2AD4"/>
<path d="M617 805C620 806 620 806 620 806L617 805Z" fill="#0000FF"/>
<path d="M432 799C435 800 435 800 435 800L432 799Z" fill="#1C1CE2"/>
<path d="M433 796C433.66 796.66 434.32 797.32 435 798C434.34 798 433.68 798 433 798C433 797.34 433 796.68 433 796Z" fill="#4E6371"/>
<path d="M456 755C459 756 459 756 459 756L456 755Z" fill="white"/>
<path d="M336 749C336.99 749.495 336.99 749.495 338 750C337.01 750.495 337.01 750.495 336 751C336 750.34 336 749.68 336 749Z" fill="#0000FF"/>
<path d="M646 747C646.99 747.495 646.99 747.495 648 748C647.01 748.495 647.01 748.495 646 749C646 748.34 646 747.68 646 747Z" fill="#4747B8"/>
<path d="M489 746C489.66 746.66 490.32 747.32 491 748C490.34 748 489.68 748 489 748C489 747.34 489 746.68 489 746Z" fill="#C6C6C6"/>
<path d="M401 738C401.66 738.66 402.32 739.32 403 740C402.34 740 401.68 740 401 740C401 739.34 401 738.68 401 738Z" fill="#FFAA55"/>
<path d="M536 704C536.66 704 537.32 704 538 704C537.67 704.66 537.34 705.32 537 706C536.67 705.34 536.34 704.68 536 704Z" fill="#AAAAAA"/>
<path d="M529 328C532 329 532 329 532 329L529 328Z" fill="#47B8E2"/>
<path d="M289 325C289.66 325.66 290.32 326.32 291 327C290.34 327 289.68 327 289 327C289 326.34 289 325.68 289 325Z" fill="#2A2AD4"/>
<path d="M561 256C561.66 256.66 562.32 257.32 563 258C562.34 258 561.68 258 561 258C561 257.34 561 256.68 561 256Z" fill="#71718E"/>
<path d="M511 246C514 247 514 247 514 247L511 246Z" fill="#4747B8"/>
<path d="M479 830C481 831 481 831 481 831L479 830Z" fill="#4040BF"/>
<path d="M597 806C599 807 599 807 599 807L597 806Z" fill="#2A2AD4"/>
<path d="M529 804C531 805 531 805 531 805L529 804Z" fill="#2A2AD4"/>
<path d="M680 790C682 791 682 791 682 791L680 790Z" fill="#4040BF"/>
<path d="M573 784C575 785 575 785 575 785L573 784Z" fill="#0000FF"/>
<path d="M360 767C362 768 362 768 362 768L360 767Z" fill="#6A6A95"/>
<path d="M443 756C445 757 445 757 445 757L443 756Z" fill="#FFFF00"/>
<path d="M472 752C474 753 474 753 474 753L472 752Z" fill="#BFBFBF"/>
<path d="M462 743C464 744 464 744 464 744L462 743Z" fill="#DF9F80"/>
<path d="M661 733C663 734 663 734 663 734L661 733Z" fill="#4040BF"/>
<path d="M312 717C314 718 314 718 314 718L312 717Z" fill="#4040BF"/>
<path d="M709 712C711 713 711 713 711 713L709 712Z" fill="#6A6A95"/>
<path d="M536 707C538 708 538 708 538 708L536 707Z" fill="#D4D4D4"/>
<path d="M544 691C546 692 546 692 546 692L544 691Z" fill="#D4D455"/>
<path d="M305 617C307 618 307 618 307 618L305 617Z" fill="#0000FF"/>
<path d="M517 583C519 584 519 584 519 584L517 583Z" fill="#007F7F"/>
<path d="M336 563C338 564 338 564 338 564L336 563Z" fill="#2A2AD4"/>
<path d="M440 509C442 510 442 510 442 510L440 509Z" fill="#4A6A95"/>
<path d="M408 487C410 488 410 488 410 488L408 487Z" fill="#6A6A95"/>
<path d="M574 371C576 372 576 372 576 372L574 371Z" fill="#0000FF"/>
<path d="M296 345C298 346 298 346 298 346L296 345Z" fill="#4040BF"/>
<path d="M484 332C486 333 486 333 486 333L484 332Z" fill="#2AD4FF"/>
<path d="M516 246C518 247 518 247 518 247L516 246Z" fill="#0000FF"/>
<path d="M545 239C547 240 547 240 547 240L545 239Z" fill="#408080"/>
<path d="M482 208C484 209 484 209 484 209L482 208Z" fill="#0000FF"/>
</g>
<defs>
<clipPath id="clip0_4_4">
<rect fill="white" height="1024" width="1024"/>
</clipPath>
</defs>
</svg>